<?xml version="1.0" encoding="utf-8"?>
<!-- Generator: Adobe Illustrator 27.1.0, SVG Export Plug-In . SVG Version: 6.00 Build 0)  -->
<svg version="1.1" id="Calque_1" xmlns="http://www.w3.org/2000/svg" xmlns:xlink="http://www.w3.org/1999/xlink" x="0px" y="0px"
	 viewBox="0 0 856 1008" style="enable-background:new 0 0 856 1008;" xml:space="preserve">
<path d="M530.71,1007.11c-18.54,0-39.37-6.9-56.8-19.37c-16.38-11.72-26.25-26.21-27.07-39.75c-1.49-24.45,24.89-49.78,80.64-77.45
	c26.88-13.33,60.77-27.18,101.47-41.46c-1.21-30.79-9.09-61.66-27.66-86.51c-30.13-40.33-87.64-61.02-157.76-56.73
	c-75.49,4.61-144.92,37.03-168.85,78.85c-4.77,8.33-7.3,16.19-9.99,24.51c-4.37,13.53-8.88,27.52-23.66,43.23
	c-15.09,16.05-35.39,28.17-58.72,35.04c-23.02,6.79-47.4,8.03-70.5,3.58c-25.8-4.96-52.28-17.59-72.65-34.63
	C23.12,823,3.26,800.56-0.23,769.94c-3.34-29.33,10.84-61.68,42.17-96.15c60.23-66.27,130.92-79.59,199.28-92.48
	c63.98-12.06,130.14-24.53,187.35-80.72c14.96-14.69,88.72-92.45,71.61-180.35c-2.78-14.27-7.99-28.99-15.06-43.08
	c-40.73,19.12-100.15,10.3-137.97-8.94c-18.75-9.54-29.6-20.43-30.55-30.67c-1.83-19.76,31.98-40.78,59.92-43.5
	c27.02-2.62,55.75,10.78,80.9,37.75c11.28,12.1,21.19,26.32,29.02,41.36c1.6-0.82,3.17-1.68,4.7-2.59
	c29.89-17.81,49.86-56.37,54.78-105.78c5.33-53.48-7.28-115.33-35.5-174.16l2.71-1.3c28.45,59.32,41.16,121.74,35.78,175.76
	c-5.02,50.37-25.51,89.75-56.23,108.06c-1.59,0.95-3.21,1.84-4.87,2.69c7.19,14.33,12.49,29.31,15.31,43.82
	c17.41,89.41-57.3,168.18-72.45,183.06c-57.86,56.83-124.48,69.38-188.9,81.53c-67.87,12.79-138.06,26.02-197.61,91.55
	c-30.28,33.32-44.6,65.75-41.41,93.79c5.86,51.41,60.86,89.12,109.63,98.5c46.81,9.01,96.45-5.8,126.47-37.73
	c14.32-15.23,18.73-28.89,22.99-42.1c2.61-8.1,5.32-16.47,10.24-25.08c24.4-42.65,94.83-75.69,171.27-80.36
	c71.15-4.34,129.6,16.77,160.35,57.93c18.77,25.13,26.85,56.24,28.2,87.28c60.15-20.97,134.94-42.9,223.74-65.56l0.74,2.91
	c-89.46,22.83-164.3,44.78-224.37,65.77c0.91,31.34-4.9,62.42-13.33,87c-15.95,46.49-42.54,78.93-71.14,86.79
	C542.29,1006.41,536.61,1007.11,530.71,1007.11z M629.05,832.21c-121.18,42.63-181.3,81.34-179.22,115.6
	c0.77,12.63,10.18,26.3,25.82,37.49c22.28,15.94,50.18,22.52,71.09,16.77c27.64-7.6,53.47-39.33,69.1-84.88
	C624.09,893.15,629.81,862.82,629.05,832.21z M383.22,196.75c-2.15,0-4.29,0.1-6.42,0.31c-28.79,2.8-58.74,23.85-57.22,40.23
	c0.84,9.04,11.38,19.35,28.93,28.27c37.14,18.89,95.41,27.61,135.24,8.94c-7.71-14.77-17.44-28.75-28.53-40.63
	C432.72,209.75,407.4,196.75,383.22,196.75z"/>
</svg>
