<?xml version="1.0" encoding="utf-8"?>
<!-- Generator: Adobe Illustrator 27.1.0, SVG Export Plug-In . SVG Version: 6.00 Build 0)  -->
<svg version="1.1" id="Calque_1" xmlns="http://www.w3.org/2000/svg" xmlns:xlink="http://www.w3.org/1999/xlink" x="0px" y="0px"
	 viewBox="0 0 500 190" style="enable-background:new 0 0 500 190;" xml:space="preserve">
<style type="text/css">
	.st0{fill:#FFFFFF;}
</style>
<g transform="matrix(6.123233995736766e-17,1,-1,6.123233995736766e-17,99.95975160598755,-0.04419279098510742)">
	<path class="st0" d="M34.4-298.6c11.8,6.3,27.1,5.6,39.8,3.6c12.7-2,26-6,38.9-8.7c5.2-1.1,24.9-6.6,23.5,3.2
		c-1.2,8.5-8.5,16.7-14.2,22.2c-6.8,6.8-14.3,13-22.2,18.4c-17.1,11.9-35.4,22.2-50.1,37.3C35.5-207.4,16.3-178.7,39-162
		c9.2,5.8,20.1,8.4,30.9,7.4c14.9-0.8,29.8-2.6,44.5-5.6c7.1-1.4,14.1-3,21-4.8c2.5-0.7,9.8-3.8,12.1-2.2s1.3,7.5,1,9.7
		c-1.1,5.8-3,11.4-5.6,16.7c-5.9,13.6-13.6,26.3-22.9,37.9c-9.9,11.5-18.2,24.2-24.9,37.9C82.8-36.2,82.5-4.3,82.8,26.5
		c0,15.4,24,15.4,23.9,0c-0.3-26.2-0.6-53.2,8.7-77.9s30.8-42.6,43-65.6c9.6-18,24.2-49,6.2-66.7c-10.6-10.5-24.9-6.7-37.7-3.4
		c-14.1,3.6-28.4,6.2-42.9,7.7c-8.7,0.9-22.3,3.7-30.3-1.3c-2.1-1.3-2.1-2.2-0.7-5.6c1.9-4.2,4.3-8.1,7.1-11.6
		c12.1-15.8,30-26.2,46.2-37.2c17.2-11.6,34.3-24.2,45.8-41.8c7.2-9.5,9.9-21.7,7.6-33.4c-3.7-13.2-16.7-19-29.5-19.1
		c-15.1,0.8-30,3.5-44.5,8c-6.6,1.8-13.3,3.1-20.1,3.8c-4.9,0.4-14.6,1.6-19-1.4c-0.1-0.6-0.1-1.1,0-1.7c1.6-3.1,3.4-6.1,5.6-8.8
		c4.1-5.6,8.4-11.6,13-17.1c10-11.9,20.8-23,32.4-33.4c11.1-10.3-5.6-27.1-16.7-16.7c-10.4,9.2-20.2,19.1-29.4,29.5
		c-9.3,10-17.5,21-24.5,32.8C20.2-321.8,20.5-306,34.4-298.6L34.4-298.6z M7.5,5.2c10.6,18.9,22.3,37.3,34.9,55
		c6.2,8.6,13.4,16.5,21.4,23.5c7.4,6.3,17.1,14.5,26.9,16.1c12.2,2,21-10.3,28.4-18.1s15.3-16.7,22.6-25.4
		c14.8-18,28.4-37,40.8-56.7c8.2-13.1-12.5-25-20.6-12c-10.2,16.4-21.3,32.2-33.4,47.3c-6.4,7.9-13,15.6-19.9,23.1
		c-3.2,3.5-6.4,6.8-9.6,10.2l-4.9,5l-1.4,1.5c-2.9-2.1-6.9-3.8-9.6-5.9c-2.9-2.4-5.8-5-8.4-7.7c-5.9-5.9-11.2-12.2-16-19
		C47.6,26.3,38,9.5,28.1-7C20.2-20-0.5-8,7.5,5.2z"/>
</g>
</svg>
