<?xml version="1.0" encoding="utf-8"?>
<!-- Generator: Adobe Illustrator 27.1.0, SVG Export Plug-In . SVG Version: 6.00 Build 0)  -->
<svg version="1.1" id="Calque_1" xmlns="http://www.w3.org/2000/svg" xmlns:xlink="http://www.w3.org/1999/xlink" x="0px" y="0px"
	 viewBox="0 0 500 190" style="enable-background:new 0 0 500 190;" xml:space="preserve">
<style type="text/css">
	.st0{fill:#FFFFFF;}
</style>
<g transform="matrix(6.123233995736766e-17,1,-1,6.123233995736766e-17,99.95975160598755,-0.04419279098510742)">
	<path class="st0" d="M155.72-1.51c-11.79-6.34-27.09-5.56-39.83-3.62c-12.74,1.95-25.98,6.01-38.94,8.68
		c-5.23,1.06-24.86,6.62-23.53-3.23c1.17-8.51,8.51-16.69,14.24-22.25c6.83-6.81,14.28-12.98,22.25-18.41
		c17.08-11.85,35.43-22.25,50.06-37.32c14.63-15.07,33.82-43.78,11.12-60.46c-9.21-5.81-20.08-8.41-30.93-7.4
		c-14.95,0.78-29.82,2.63-44.5,5.56c-7.08,1.41-14.09,3.02-21.03,4.84c-2.5,0.67-9.85,3.78-12.07,2.17c-2.22-1.61-1.33-7.51-1-9.73
		c1.13-5.78,3-11.38,5.56-16.69c5.92-13.59,13.63-26.33,22.92-37.88c9.88-11.5,18.24-24.23,24.86-37.88
		c12.4-28.81,12.68-60.63,12.4-91.5c0-15.35-24.03-15.41-23.86,0c0.28,26.2,0.61,53.23-8.68,77.87s-30.76,42.55-43,65.58
		c-9.57,18.02-24.2,49-6.23,66.75c10.62,10.51,24.92,6.73,37.71,3.45c14.09-3.62,28.42-6.21,42.89-7.73
		c8.68-0.89,22.25-3.73,30.26,1.33c2.11,1.28,2.06,2.22,0.72,5.56c-1.88,4.16-4.27,8.06-7.12,11.63
		c-12.07,15.8-29.98,26.25-46.22,37.21c-17.24,11.63-34.26,24.2-45.83,41.83c-7.15,9.54-9.9,21.68-7.56,33.37
		c3.73,13.24,16.69,19.02,29.54,19.08c15.1-0.83,30.04-3.5,44.5-7.95c6.6-1.81,13.33-3.08,20.14-3.78
		c4.89-0.39,14.63-1.61,19.02,1.39c0.09,0.57,0.09,1.15,0,1.72c-1.55,3.13-3.42,6.09-5.56,8.84c-4.12,5.56-8.45,11.57-13.02,17.08
		c-9.98,11.88-20.8,23.04-32.37,33.37c-11.12,10.29,5.56,27.14,16.69,16.69c10.41-9.21,20.22-19.07,29.37-29.54
		c9.3-10.04,17.51-21.04,24.47-32.82C169.85,21.74,169.57,5.94,155.72-1.51L155.72-1.51z M182.58-305.27
		c-10.65-18.93-22.31-37.28-34.93-54.96c-6.24-8.61-13.43-16.5-21.42-23.53c-7.4-6.34-17.08-14.46-26.92-16.08
		c-12.18-1.95-20.97,10.29-28.37,18.13s-15.35,16.69-22.58,25.42c-14.82,18-28.44,36.95-40.77,56.74
		c-8.18,13.07,12.46,25.03,20.58,12.01c10.15-16.44,21.3-32.25,33.37-47.34c6.42-7.9,13.03-15.61,19.86-23.14
		c3.17-3.45,6.4-6.84,9.62-10.23l4.95-5.01l1.45-1.5c2.89,2.11,6.9,3.78,9.57,5.9c2.95,2.39,5.75,4.96,8.4,7.68
		c5.87,5.86,11.21,12.23,15.96,19.02c11.12,15.74,20.69,32.6,30.59,49.06C169.9-280.13,190.54-292.09,182.58-305.27z"/>
</g>
</svg>
