<?xml version="1.0" encoding="utf-8"?>
<!-- Generator: Adobe Illustrator 27.1.0, SVG Export Plug-In . SVG Version: 6.00 Build 0)  -->
<svg version="1.1" id="Calque_1" xmlns="http://www.w3.org/2000/svg" xmlns:xlink="http://www.w3.org/1999/xlink" x="0px" y="0px"
	 viewBox="0 0 1000 1000" style="enable-background:new 0 0 1000 1000;" xml:space="preserve">
<style type="text/css">
	.st0{fill:#29314A;}
	.st1{fill:#FFFFFF;}
	.st2{fill:#FFFFFF;stroke:#FFFFFF;stroke-width:5;stroke-miterlimit:10;}
</style>
<g>
	<path class="st0" d="M499.88,995c-66.83,0-131.65-13.09-192.67-38.9c-58.94-24.93-111.88-60.62-157.34-106.08
		c-45.46-45.46-81.15-98.4-106.08-157.34C17.97,631.65,4.88,566.83,4.88,500c0-66.83,13.09-131.65,38.9-192.67
		c24.93-58.94,60.62-111.88,106.08-157.34s98.4-81.15,157.34-106.08C368.23,18.09,433.06,5,499.88,5s131.65,13.09,192.67,38.9
		c58.94,24.93,111.88,60.62,157.34,106.08s81.15,98.4,106.08,157.34c25.81,61.02,38.9,125.85,38.9,192.67
		c0,66.83-13.09,131.65-38.9,192.67c-24.93,58.94-60.62,111.88-106.08,157.34c-45.46,45.46-98.4,81.15-157.34,106.08
		C631.53,981.91,566.71,995,499.88,995z"/>
	<path class="st1" d="M499.88,10c66.15,0,130.32,12.95,190.73,38.5c58.35,24.68,110.75,60.01,155.76,105.02
		c45,45,80.34,97.41,105.02,155.76c25.55,60.4,38.5,124.57,38.5,190.73s-12.95,130.32-38.5,190.73
		c-24.68,58.35-60.01,110.75-105.02,155.76c-45,45-97.41,80.34-155.76,105.02c-60.4,25.55-124.57,38.5-190.73,38.5
		s-130.32-12.95-190.73-38.5c-58.35-24.68-110.75-60.01-155.76-105.02c-45-45-80.34-97.41-105.02-155.76
		C22.84,630.32,9.88,566.15,9.88,500s12.95-130.32,38.5-190.73c24.68-58.35,60.01-110.75,105.02-155.76S250.81,73.18,309.16,48.5
		C369.56,22.95,433.73,10,499.88,10 M499.88,0c-276.14,0-500,223.86-500,500s223.86,500,500,500s500-223.86,500-500
		S776.02,0,499.88,0L499.88,0z"/>
</g>
<g>
	<path class="st0" d="M500,745c-65.44,0-126.97-25.48-173.24-71.76S255,565.44,255,500c0-65.44,25.48-126.97,71.76-173.24
		S434.56,255,500,255c65.44,0,126.97,25.48,173.24,71.76S745,434.56,745,500c0,65.44-25.48,126.97-71.76,173.24S565.44,745,500,745z
		"/>
	<path class="st1" d="M500,260c32.4,0,63.83,6.34,93.42,18.86c28.58,12.09,54.25,29.39,76.29,51.44
		c22.04,22.04,39.35,47.71,51.44,76.29C733.66,436.17,740,467.6,740,500s-6.34,63.83-18.86,93.42
		c-12.09,28.58-29.39,54.25-51.44,76.29c-22.04,22.04-47.71,39.35-76.29,51.44C563.83,733.66,532.4,740,500,740
		s-63.83-6.34-93.42-18.86c-28.58-12.09-54.25-29.39-76.29-51.44c-22.04-22.04-39.35-47.71-51.44-76.29
		C266.34,563.83,260,532.4,260,500s6.34-63.83,18.86-93.42c12.09-28.58,29.39-54.25,51.44-76.29
		c22.04-22.04,47.71-39.35,76.29-51.44C436.17,266.34,467.6,260,500,260 M500,250c-138.07,0-250,111.93-250,250s111.93,250,250,250
		s250-111.93,250-250S638.07,250,500,250L500,250z"/>
</g>
<path class="st1" d="M570.56,460.09c-1.13-1.44-2.86-2.29-4.69-2.29H452.64l-1.68-18.75c-0.28-3.07-2.85-5.42-5.92-5.42h-12.08
	c-3.28,0-5.95,2.66-5.95,5.95s2.66,5.95,5.95,5.95h6.65l6.52,72.63c0,0.09,0,0.17,0,0.26c0.01,0.23,0.04,0.45,0.08,0.67l0.24,2.66
	c0,0.05,0.01,0.1,0.02,0.15c0.72,6.26,3.92,11.69,8.55,15.35c-2.4,3.06-3.83,6.91-3.83,11.09c0,9.94,8.09,18.03,18.03,18.03
	c9.94,0,18.03-8.09,18.03-18.03c0-2.15-0.38-4.22-1.08-6.14h32.55c-0.7,1.92-1.08,3.98-1.08,6.14c0,9.94,8.09,18.03,18.03,18.03
	c9.94,0,18.03-8.09,18.03-18.03c0-9.94-8.09-18.03-18.03-18.03h-66.42c-4.52,0-8.46-2.73-10.15-6.7l95.05-5.59
	c2.59-0.15,4.79-1.97,5.42-4.49l12.09-48.34C572.09,463.41,571.69,461.53,570.56,460.09L570.56,460.09z"/>
<g>
	<path class="st2" d="M263.96,247.14c-0.66,0.7-1.64,0.65-2.95-0.13l-14.67-9.39c-1.16-0.79-2.99-1.96-5.49-3.51
		c-2.5-1.54-5.29-3.17-8.36-4.89c-0.64,1.3-1.26,3.1-1.87,5.38c-0.61,2.28-1.48,5.82-2.61,10.61c-1.08,4.11-1.91,7.29-2.48,9.53
		c-0.57,2.24-1,4.18-1.29,5.81c-0.29,1.63-0.66,3.63-1.12,5.98c0.8,1.48,1.8,3.23,2.99,5.23c1.19,2,2.31,3.93,3.35,5.78
		c0.88,1.71,0.96,2.95,0.23,3.73c-1.1,1.17-2.5,0.94-4.21-0.66c-0.23-0.22-0.45-0.46-0.64-0.72c-0.2-0.26-0.38-0.54-0.54-0.83
		l-3.61-6.68c-0.99-0.19-1.67-0.48-2.06-0.84c-0.39-0.36-0.59-0.77-0.6-1.23l-0.12-0.11c-1.01-0.95-1.32-2.48-0.94-4.61
		c-0.57-1.41-1.1-2.72-1.59-3.91c-0.07,0.08-0.49-0.53-1.25-1.83c-0.76-1.3-2.22-3.91-4.38-7.84l-6.98-13.14
		c-1.2-2.3-2.84-5.23-4.92-8.79c-2.07-3.56-4.51-7.89-7.31-13.02l-0.13-0.56l-4.5-9.93c-0.63-0.88-1.39-2.14-2.27-3.78
		c-0.88-1.63-1.92-3.52-3.12-5.68c-0.32-0.44-0.61-0.9-0.89-1.39c-0.28-0.48-0.54-0.91-0.78-1.28c-1.04-1.7-1.45-3.05-1.26-4.04
		c0.14-0.46,0.31-0.8,0.53-1.04c0.73-0.78,1.86-0.92,3.38-0.44c1.52,0.48,2.6,1.09,3.23,1.82c2.23,1.21,4.82,2.77,7.79,4.68
		c2.97,1.91,6.3,4.09,10,6.54l0.46,0.21c1.38,0.56,2.91,1.42,4.61,2.57c1.7,1.15,3.63,2.53,5.79,4.12l15.54,11.74l0.83-2.29
		c0.07-0.23,0.25-0.5,0.54-0.81c0.88-0.93,2.21-0.56,4,1.12c0.78,0.73,1.21,1.44,1.31,2.11c0.1,0.68,0.15,1.17,0.16,1.47l-0.93,2.86
		c0.38,0.22,1.06,0.59,2.02,1.13c0.96,0.54,2.25,1.27,3.86,2.2l7.03,3.97c1.84,1,3.98,2.27,6.4,3.82c2.43,1.55,5.1,3.33,8.03,5.35
		c1.15,0.79,1.88,1.77,2.19,2.93C264.69,245.62,264.55,246.52,263.96,247.14z M218.79,257.83c0-0.15,0.26-1.25,0.8-3.31
		c0.54-2.05,1.2-4.58,1.97-7.59c0.77-3,1.57-6.03,2.38-9.07c0.81-3.04,1.52-5.71,2.13-7.99c0.61-2.28,0.98-3.65,1.12-4.11
		c-0.39-0.36-0.87-0.78-1.46-1.26c-0.58-0.47-1.3-1.03-2.15-1.69c-1.93-1.52-3.94-3.01-6.02-4.45c-2.08-1.44-4.17-2.85-6.25-4.22
		l-9.72-6.71c-2.01-1.45-5.62-3.75-10.85-6.91l-3.81-2.26c0.33,0.74,0.79,1.73,1.39,2.96c0.6,1.23,1.35,2.69,2.23,4.4l5.08,10.48
		c1.2,2.15,2.8,4.97,4.79,8.45c2,3.49,4.39,7.79,7.2,12.91c3.36,6.09,5.82,10.52,7.38,13.3c1.56,2.78,2.56,4.6,3,5.45
		C218.45,257.07,218.71,257.61,218.79,257.83z"/>
	<path class="st2" d="M238.45,193.86c-1.2,1.06-2.28,0.8-3.24-0.77l-2.92-5.74c-0.53-1.09-0.36-2.02,0.52-2.8
		c1.76-1.55,3.15-1.42,4.17,0.38c0.92,1.04,1.77,3.06,2.56,6.06C239.61,192.19,239.25,193.15,238.45,193.86z M285.63,310.91
		c-5.12,4.51-10.26,3.84-15.4-2c-8.53-9.69-9.02-29.22-1.48-58.59c0.26-0.51,0.42-1.3,0.49-2.35c-2.01-2.92-4.42-6.63-7.23-11.12
		c-2.81-4.48-6.07-9.72-9.77-15.7l0.12-0.11c-0.55-0.79-1.21-1.81-1.96-3.07c-0.75-1.26-1.64-2.79-2.66-4.59
		c-0.94-3.01-0.77-5.07,0.51-6.2c0.8-0.7,1.76-0.91,2.87-0.61c1.11,0.3,1.83,0.87,2.16,1.73l0.09,0.35
		c0.21,0.24,0.39,0.37,0.54,0.38c1.82,7.07,7.99,18.2,18.51,33.37l4.7-7.98c1.12-0.99,2.21-0.88,3.27,0.32
		c0.77,0.88,0.79,1.71,0.07,2.5l-5.54,8.72c2,2.93,3.73,5.53,5.17,7.81c1.44,2.28,2.6,4.25,3.48,5.89c5.05,9.62,8.02,18.8,8.9,27.55
		C293.6,298,291.32,305.91,285.63,310.91z M282.79,307.44c4.25-3.74,5.59-10.6,4.03-20.6c-0.71-4.35-1.78-8.52-3.23-12.51
		c-1.45-3.98-3.23-7.75-5.35-11.28c-0.13-0.31-0.3-0.59-0.52-0.83c-0.21-0.24-0.42-0.48-0.63-0.72c-0.85-0.96-1.81-1.78-2.91-2.45
		c-1.09-0.67-1.95-0.73-2.6-0.17c-0.32,0.28-0.57,0.72-0.76,1.31l-0.23-0.01c-5.62,21.71-4.55,36.97,3.21,45.78
		C276.92,309.48,279.91,309.98,282.79,307.44z"/>
	<path class="st2" d="M288.43,225.35c-2.74,2.04-5.85,2.69-9.32,1.95c-3.18-0.69-5.69-2.28-7.53-4.77c-3.44-4.62-5-11.1-4.69-19.44
		c0.06-3.5,0.43-6.83,1.13-10.01c0.7-3.18,1.6-6.24,2.72-9.21c0.24-0.57,0.74-1.15,1.51-1.72c2.48-1.85,4.17-2.17,5.06-0.97
		c0.25,0.34,0.29,0.92,0.09,1.73l0.09,0.13c2.62,0.84,5.31,1.77,8.05,2.78c2.75,1.01,5.11,2.85,7.08,5.5
		c1.66,2.23,2.77,4.92,3.33,8.09c0.56,3.17,0.63,6.48,0.2,9.92c-0.43,3.44-1.31,6.59-2.64,9.45
		C292.18,221.63,290.48,223.82,288.43,225.35z M285.6,221.27c2.08-1.67,3.69-4.24,4.85-7.69c1.15-3.45,1.72-7.03,1.69-10.73
		c-0.03-3.7-0.8-6.65-2.3-8.86c-2.31-3.46-6.83-5.96-13.54-7.48c-1.71,5.39-2.63,10.93-2.78,16.63c-0.09,6.85,1.17,12.03,3.78,15.53
		C280.09,222.44,282.86,223.31,285.6,221.27z"/>
	<path class="st2" d="M338.43,190.24c-1.98,1.26-4.25,0.96-6.79-0.91c-0.45-0.35-1.13-1.01-2.05-1.96
		c-0.92-0.95-2.11-2.17-3.58-3.67c-1.7-2.1-2.83-2.68-3.4-1.74c-0.16,3.16-0.83,6.93-2.01,11.29c-1.5,5.53-3.13,8.8-4.89,9.81
		c-1.94,1.11-4.46,0.59-7.54-1.58c-2.53-1.62-4.4-3.5-5.62-5.63c-4.08-7.13-6.74-13.9-7.96-20.33c-0.17-1.38,0.2-2.33,1.13-2.86
		c0.83-0.48,1.86-0.51,3.08-0.1c1.22,0.41,2.12,1.12,2.7,2.14c0.32,0.55,0.58,1.88,0.8,3.97c0.2,4.43,1.53,8.78,3.96,13.03
		c2.65,4.63,4.86,6.44,6.62,5.43c0.83-0.48,2.1-2.98,3.8-7.53c2.93-8.19,3.39-16.94,1.38-26.24c-0.17-1.38,0.25-2.35,1.27-2.94
		c1.67-0.95,2.9-0.74,3.69,0.65c0.53,0.93,1,2.01,1.4,3.25c0.4,1.24,0.77,2.69,1.11,4.34c0.42,1.6,0.86,3.01,1.31,4.23
		c0.45,1.22,0.94,2.29,1.47,3.21c0.37,0.65,0.85,1.39,1.45,2.21c0.6,0.83,1.28,1.7,2.05,2.61c2.05,2.51,3.49,3.84,4.31,3.98
		c1.36-2.13,2.49-3.85,3.4-5.17c0.9-1.32,1.94-2.99,3.12-5.01c0.92-0.53,1.6-0.42,2.03,0.32c0.42,0.74,0.27,2.24-0.46,4.51
		c-0.73,2.26-1.66,4.45-2.78,6.57C340.3,188.25,339.3,189.62,338.43,190.24z"/>
	<path class="st2" d="M362.36,189.64c-2.45,1.05-4.31,0.11-5.57-2.83c-6.28-14.6-11.94-30.57-16.97-47.92
		c-1.07,0.23-2.14,0.49-3.24,0.78c-1.09,0.3-2.17,0.56-3.23,0.78c-2.91,0.79-4.62,0.6-5.13-0.58s-0.24-2.16,0.81-2.96l-0.15,0.06
		c-0.88,0.38-0.77,0.24,0.34-0.41c1.11-0.65,2.56-1.48,4.33-2.48c1.78-1,3.2-1.73,4.28-2.19c-0.89-3.68-1.46-8.25-1.72-13.72
		c-0.24-3.26-0.5-6.08-0.77-8.47c-0.27-2.38-0.48-4.29-0.64-5.73c-0.35-2.17,0.5-3.7,2.56-4.58c0.88-0.38,1.41-0.09,1.6,0.88
		c0.4,3.08,0.95,7.06,1.65,11.92c0.7,4.87,1.65,10.58,2.85,17.15c0.88-0.38,1.98-0.85,3.31-1.42c1.32-0.57,2.89-1.18,4.69-1.85
		c1.81-0.66,3.38-1.25,4.72-1.77c1.34-0.52,2.41-0.95,3.19-1.29c0.88-0.38,1.47-0.22,1.77,0.46c0.25,0.59,0.16,1.38-0.28,2.39
		c-0.44,1-1.1,1.69-1.98,2.07c-1.18,0.51-2.87,1.44-5.07,2.79c-2.2,1.36-4.97,3.16-8.3,5.4c3.72,12.68,10.03,29.36,18.93,50.03
		C364.98,187.64,364.32,188.8,362.36,189.64z"/>
	<path class="st2" d="M396.7,170.08c-4.48,1.42-8.54,1.19-12.21-0.67c-3.67-1.86-6.24-5.13-7.71-9.81
		c-0.32-1.02-0.57-2.06-0.74-3.12c-0.17-1.06-0.31-2.14-0.43-3.22c-0.26-4.73,1.36-10.38,4.87-16.98
		c3.99-7.19,8.07-11.44,12.24-12.76c3.46-1.09,5.7,0.33,6.71,4.25c1.47,5.02,0.27,10.77-3.61,17.25c-1.73,2.67-3.58,5.22-5.56,7.63
		c-1.98,2.42-4.34,4.06-7.09,4.92l-0.15,0.05c2.39,6.52,6.85,8.74,13.36,6.69c2.13-0.67,4.36-1.94,6.69-3.79
		c0.17-0.16,0.46-0.31,0.87-0.44c1.32-0.42,2.19,0.04,2.61,1.36c0.29,0.92,0.06,1.77-0.7,2.57
		C403.62,166.83,400.57,168.86,396.7,170.08z M384.89,149.15c2.93-1.71,5.21-3.88,6.83-6.52c2.91-4.61,3.88-8.44,2.91-11.49
		l-0.1-0.31c-0.22-0.71-0.66-1.19-1.29-1.44c-0.64-0.24-1.03-0.23-1.16,0.03c-3.15,1-5.79,4.35-7.9,10.05
		c-0.29,0.87-0.6,2.01-0.94,3.4c-0.34,1.4-0.66,3.04-0.96,4.92c-0.04,0.24-0.02,0.46,0.04,0.66
		C382.61,149.36,383.46,149.6,384.89,149.15z"/>
	<path class="st2" d="M418.47,159.28c-1.04,0.21-1.98-0.87-2.79-3.26c-0.82-2.39-1.5-4.89-2.03-7.5c-0.34-1.67-0.64-3.22-0.87-4.64
		c-0.24-1.42-0.43-2.5-0.58-3.23c-0.21-1.04-0.44-2.39-0.67-4.03c-0.23-1.64-0.46-3.53-0.68-5.66c-0.57-4.35-1.08-7.62-1.53-9.81
		c-0.21-1.04-0.48-2.05-0.79-3.02c-0.31-0.97-0.55-1.87-0.72-2.71l-0.13-0.63c-0.26-1.25,0.29-2.02,1.65-2.3
		c1.04-0.21,1.75,0.29,2.11,1.53c0.45,1.11,1.09,3.43,1.92,6.96c0.83,3.53,1.91,8.21,3.21,14.04c0.32,1.57,0.8,2.29,1.42,2.16
		c0.73-0.15,1.58-1.58,2.55-4.28c2-5.64,4.42-10.55,7.26-14.73c2.12-2.94,4.27-4.64,6.47-5.09c2.61-0.54,5.09,0.15,7.45,2.06
		c0.78,0.6,1.25,1.32,1.42,2.16c0.28,1.36-0.16,2.16-1.3,2.39c-0.42,0.09-0.92,0.03-1.51-0.18l-0.12,0.19
		c-2.29-1.05-3.74-1.52-4.37-1.39c-2.51,0.52-4.58,2.36-6.21,5.53c-5.69,10.97-8.44,21.45-8.24,31.42
		C421.43,157.53,420.45,158.87,418.47,159.28z"/>
	<path class="st2" d="M515.81,152.93c-0.54,0-1.02-0.22-1.44-0.64c-2.88-2.99-4.37-7.36-4.47-13.12c0-0.42,0.05-0.93,0.16-1.52
		c0.11-0.58,0.16-1.25,0.16-2l0.16-3.36v-0.48c0-1.92-0.7-2.61-2.08-2.08c-2.13,1.49-4.99,3.65-8.56,6.48
		c-3.58,2.83-7.87,6.26-12.88,10.31c-2.14,2.03-4.86,3.04-8.16,3.04c-1.92,0-3.55-1.04-4.88-3.12c-1.33-2.08-1.84-4.08-1.52-6
		c0.32-2.77,1.44-5.78,3.36-9.04c1.92-3.25,4.29-6.5,7.12-9.76c2.83-3.25,5.87-6.13,9.12-8.64c3.25-2.5,6.37-4.29,9.36-5.36
		c1.17-0.42,2.29-0.74,3.36-0.96c1.07-0.21,2.13-0.32,3.2-0.32c4.58,0,6.88,1.6,6.88,4.8c0,1.07-0.43,1.6-1.28,1.6
		c-0.32,0-0.64-0.03-0.96-0.08c-0.32-0.05-0.64-0.19-0.96-0.4c-1.92-1.6-3.68-2.4-5.28-2.4c-1.6,0-3.95,0.96-7.04,2.88
		c-2.46,1.49-4.86,3.36-7.2,5.6c-2.35,2.24-4.59,4.75-6.72,7.52c-2.03,2.67-3.63,5.04-4.8,7.12c-1.18,2.08-1.87,3.92-2.08,5.52
		c-0.11,0.43-0.16,0.96-0.16,1.6c0,1.71,0.69,2.56,2.08,2.56c1.7,0,4.91-1.54,9.6-4.64c11.2-7.46,18.99-14.07,23.37-19.83
		c1.06-1.38,2.03-3.25,2.88-5.6c0.53-1.49,1.65-2.24,3.36-2.24c1.92,0,2.88,1.07,2.88,3.2c0,1.71-0.8,3.84-2.4,6.4
		c-2.56,7.79-3.84,13.17-3.85,16.16c0.21,4.59,1.33,8.27,3.36,11.04c0.32,0.32,0.48,0.75,0.48,1.28c0,0.96-0.48,1.95-1.44,2.96
		C517.57,152.42,516.66,152.93,515.81,152.93z"/>
	<path class="st2" d="M562.95,156.42c-2.34-0.23-3.94-1.85-4.8-4.88c-0.14-0.56-0.27-1.49-0.41-2.81c-0.14-1.31-0.33-3.01-0.57-5.09
		c-0.05-2.7-0.58-3.85-1.61-3.46c-2.07,2.4-4.91,4.96-8.53,7.67c-4.59,3.44-7.88,5.02-9.89,4.73c-2.22-0.32-3.88-2.27-4.98-5.88
		c-1-2.83-1.32-5.47-0.98-7.9c1.16-8.13,3.23-15.11,6.21-20.93c0.71-1.19,1.59-1.71,2.65-1.56c0.95,0.14,1.78,0.74,2.49,1.81
		c0.71,1.07,0.98,2.19,0.82,3.35c-0.09,0.63-0.7,1.84-1.81,3.62c-2.56,3.62-4.19,7.86-4.88,12.72c-0.75,5.28-0.13,8.06,1.88,8.35
		c0.95,0.14,3.49-1.06,7.62-3.6c7.34-4.66,13.08-11.28,17.21-19.85c0.71-1.19,1.64-1.71,2.8-1.54c1.9,0.27,2.74,1.2,2.51,2.78
		c-0.15,1.06-0.45,2.2-0.89,3.43c-0.45,1.23-1.04,2.6-1.8,4.11c-0.65,1.52-1.17,2.9-1.56,4.14c-0.39,1.24-0.66,2.39-0.81,3.44
		c-0.11,0.74-0.18,1.62-0.21,2.64c-0.04,1.02-0.04,2.12,0.01,3.31c0.08,3.24,0.39,5.17,0.95,5.79c2.38-0.85,4.33-1.51,5.86-1.99
		c1.52-0.48,3.37-1.16,5.54-2.04c1.05,0.15,1.52,0.65,1.4,1.49c-0.12,0.85-1.16,1.93-3.13,3.27c-1.97,1.34-4.05,2.49-6.23,3.48
		C565.65,156,564.02,156.47,562.95,156.42z"/>
	<path class="st2" d="M569.97,220.86c-1.71-0.6-2.37-1.46-1.98-2.56c0.18-0.51,0.41-1.33,0.7-2.47c0.29-1.14,0.62-2.55,0.98-4.23
		c0.4-1.45,0.75-2.76,1.05-3.95c0.31-1.19,0.64-2.12,0.98-2.79c2.82-6.7,6.8-14.48,11.96-23.35c5.16-8.87,11.6-18.79,19.31-29.75
		c-0.67-0.35-0.86-0.92-0.58-1.73c-0.33-0.68-0.31-1.52,0.04-2.53c0.5-1.41,1.39-2.59,2.69-3.55c1.3-0.96,2.61-1.88,3.94-2.77
		l2.67-2.28l3.57-4.85c1.41-1.76,2.58-3.47,3.51-5.13c0.92-1.65,1.68-3.17,2.28-4.54c0.56-1.27,1.5-1.68,2.8-1.22
		c1.51,0.53,2.05,1.4,1.62,2.61c-0.53,1.51-1.21,2.96-2.05,4.37c-0.83,1.4-1.79,2.82-2.86,4.25c8.55-3.09,16.1-3.49,22.64-1.18
		c3.02,1.06,4.89,3.14,5.61,6.22c0.7,2.51,0.62,4.97-0.23,7.38c-2.38,6.74-8.57,13.72-18.58,20.94
		c-10.66,7.78-19.26,10.52-25.8,8.21c-2.92-1.03-3.77-3.25-2.57-6.67c0.67-1.91,1.66-2.64,2.97-2.18c0.6,0.21,1.32,0.91,2.14,2.11
		c0.47,0.28,0.94,0.53,1.43,0.76c0.48,0.23,0.94,0.53,1.38,0.91c4.83,1.7,11.38-0.68,19.66-7.15c7.87-6.27,12.86-12.43,14.99-18.47
		c0.5-1.41,0.4-3-0.27-4.76c-0.68-1.77-1.67-2.88-2.98-3.34c-8.62-3.15-16.87-2.04-24.75,3.32l-4.14,5.5
		c-13.82,18.99-24.2,38.35-31.15,58.07l-3.02,8.1l-2.86,7.64C574.5,221.5,572.79,221.86,569.97,220.86z"/>
	<path class="st2" d="M674.08,199.22c-0.47-0.25-0.8-0.66-0.98-1.23c-1.18-3.98-0.48-8.55,2.08-13.71c0.2-0.38,0.48-0.8,0.84-1.27
		c0.36-0.47,0.72-1.04,1.06-1.7l1.69-2.91l0.22-0.43c0.89-1.7,0.59-2.64-0.88-2.8c-2.58,0.34-6.11,0.94-10.58,1.8
		c-4.48,0.86-9.87,1.93-16.19,3.21c-2.83,0.81-5.71,0.46-8.64-1.07c-1.7-0.89-2.67-2.56-2.89-5.02c-0.22-2.46,0.25-4.47,1.42-6.02
		c1.56-2.31,3.95-4.47,7.15-6.47c3.21-2,6.81-3.79,10.82-5.37c4.01-1.58,8.03-2.73,12.08-3.45c4.04-0.72,7.63-0.87,10.78-0.43
		c1.24,0.16,2.38,0.4,3.42,0.7c1.04,0.3,2.04,0.7,2.99,1.19c4.07,2.12,5.37,4.6,3.89,7.43c-0.49,0.95-1.12,1.22-1.87,0.83
		c-0.29-0.15-0.56-0.32-0.81-0.51c-0.26-0.19-0.48-0.46-0.67-0.8c-0.96-2.31-2.16-3.83-3.58-4.57c-1.42-0.74-3.94-0.97-7.57-0.7
		c-2.87,0.19-5.86,0.74-8.97,1.64c-3.12,0.9-6.26,2.09-9.43,3.57c-3.03,1.43-5.54,2.8-7.54,4.1c-2,1.3-3.46,2.62-4.39,3.94
		c-0.29,0.33-0.59,0.78-0.88,1.35c-0.79,1.51-0.57,2.59,0.66,3.23c1.51,0.79,5.06,0.89,10.66,0.32c13.38-1.45,23.34-3.73,29.88-6.82
		c1.58-0.74,3.3-1.95,5.14-3.64c1.16-1.08,2.5-1.22,4.02-0.44c1.7,0.89,2.06,2.28,1.08,4.17c-0.79,1.51-2.48,3.04-5.08,4.57
		c-5.87,5.73-9.49,9.92-10.87,12.56c-1.93,4.17-2.63,7.95-2.12,11.35c0.14,0.43,0.08,0.88-0.17,1.36c-0.44,0.85-1.32,1.51-2.64,1.96
		C675.88,199.58,674.84,199.61,674.08,199.22z"/>
	<path class="st2" d="M689.18,204.5c-1.29-0.95-0.91-2.45,1.13-4.52c2.46-2.82,5.64-6.21,9.54-10.17
		c3.89-3.96,8.45-8.51,13.69-13.67c1.38-0.98,2.54-1.12,3.48-0.42c1.21,0.88,1.4,1.88,0.58,3c-0.06,0.09-0.18,0.24-0.33,0.45
		c-0.16,0.21-0.38,0.42-0.65,0.61c-0.74,0.65-1.51,1.38-2.3,2.19c-0.79,0.81-1.56,1.73-2.32,2.76c-0.88,1.21-1.77,2.54-2.64,4.01
		c-0.88,1.47-1.72,3.11-2.51,4.91c0.52,0.38,3.98,0.07,10.39-0.91c6.28-0.82,10.84-0.72,13.67,0.3l0.1-0.13
		c0.32,0.1,0.61,0.25,0.87,0.44c0.26,0.19,0.47,0.35,0.64,0.47c1.63,1.2,2.14,2.76,1.52,4.69l-6.99,13.33
		c-3.07,5.82-3.58,9.48-1.51,10.99c0.86,0.63,1.94,0.96,3.24,0.99c1.83,0.02,3.67-0.05,5.52-0.22c1.84-0.17,3.6-0.5,5.29-0.99
		c0.64,0.21,1.05,0.37,1.22,0.5c0.6,0.44,0.62,1.05,0.05,1.82c-0.38,0.52-1.23,0.95-2.55,1.31c-2.13,0.56-4.31,1.1-6.56,1.64
		c-2.24,0.54-4.25,0.75-6.02,0.64c-2.33-0.25-4.05-0.79-5.17-1.61c-2.32-1.7-2.7-4.89-1.13-9.56l5.47-12.06
		c1.81-4.09,1.99-6.41,0.53-6.95c-0.09-0.06-0.18-0.16-0.27-0.3c-0.1-0.14-0.23-0.27-0.4-0.4c-0.35-0.25-0.82-0.47-1.42-0.64
		c-0.6-0.17-1.27-0.2-2.02-0.09l-5.46,0.96c-4.69,0.8-8.88,1.83-12.58,3.08c-3.7,1.26-6.93,2.59-9.68,4.01
		C692.03,205.67,690.56,205.51,689.18,204.5z"/>
	<path class="st2" d="M732.21,236c-0.71-0.64-0.9-1.39-0.57-2.24c0.47-1.16,1.23-2.41,2.29-3.75c1.06-1.34,2.35-2.77,3.86-4.28
		c1.8-1.68,4.32-3.57,7.58-5.66c3.25-2.1,7.19-4.36,11.82-6.79c1.03-0.51,1.94-0.4,2.74,0.31c1.5,1.36,1.41,2.49-0.28,3.41
		c-1.25,0.75-2.45,1.53-3.62,2.34c-1.17,0.82-2.33,1.63-3.5,2.45c-2.04,1.47-3.82,2.81-5.34,4.02c-1.52,1.21-2.78,2.37-3.78,3.48
		c-3.5,3.88-5.28,5.94-5.34,6.17c-0.48,1.01-1.38,1.53-2.69,1.56C734.06,237.05,733,236.71,732.21,236z M770.1,202.29
		c-1.19-1.07-1.1-2.28,0.26-3.64l5.26-3.45c1.02-0.66,1.97-0.6,2.84,0.19c1.82,1.64,1.89,3.07,0.22,4.29
		c-1.08,1.04-2.46,2.02-4.15,2.94C772.84,203.55,771.37,203.44,770.1,202.29z"/>
	<path class="st2" d="M751.19,262.57c-3.24-3.4-4.83-7.15-4.76-11.26c0.06-4.11,1.87-7.86,5.42-11.24c0.77-0.73,1.6-1.41,2.48-2.03
		c0.88-0.62,1.78-1.22,2.7-1.8c4.13-2.31,9.93-3.34,17.39-3.09c8.21,0.42,13.83,2.22,16.84,5.39c2.5,2.63,2.21,5.26-0.87,7.9
		c-3.86,3.53-9.55,4.97-17.08,4.34c-3.16-0.38-6.26-0.92-9.3-1.64c-3.04-0.72-5.55-2.11-7.54-4.2l-0.11-0.12
		c-4.8,5.02-4.84,9.99-0.13,14.93c1.54,1.62,3.66,3.07,6.35,4.34c0.22,0.08,0.48,0.27,0.78,0.58c0.96,1,0.93,1.99-0.07,2.94
		c-0.7,0.66-1.57,0.83-2.62,0.5C757.15,267.35,753.99,265.5,751.19,262.57z M764.8,242.75c2.82,1.88,5.78,2.97,8.86,3.27
		c5.42,0.58,9.29-0.23,11.6-2.44l0.23-0.22c0.54-0.51,0.78-1.11,0.72-1.79c-0.06-0.68-0.24-1.02-0.54-1.03
		c-2.28-2.4-6.45-3.29-12.5-2.68c-0.91,0.13-2.07,0.35-3.47,0.65c-1.4,0.31-3.02,0.74-4.84,1.3c-0.23,0.07-0.42,0.18-0.57,0.33
		C763.6,240.8,763.77,241.67,764.8,242.75z"/>
	<path class="st2" d="M770.55,277.46c-0.65-0.84-0.09-2.16,1.7-3.95c1.79-1.79,3.73-3.5,5.84-5.13c1.35-1.04,2.61-1.99,3.78-2.83
		c1.17-0.84,2.05-1.49,2.64-1.94c0.84-0.65,1.95-1.44,3.32-2.37c1.37-0.93,2.96-1.96,4.79-3.1c3.65-2.42,6.37-4.32,8.14-5.69
		c0.84-0.65,1.63-1.33,2.37-2.04c0.73-0.71,1.44-1.32,2.12-1.84l0.51-0.39c1.01-0.78,1.94-0.63,2.79,0.47
		c0.65,0.84,0.51,1.7-0.44,2.57c-0.8,0.89-2.6,2.48-5.4,4.79c-2.8,2.3-6.54,5.32-11.19,9.06c-1.27,0.98-1.7,1.72-1.31,2.23
		c0.46,0.59,2.11,0.73,4.97,0.41c5.94-0.69,11.41-0.67,16.42,0.04c3.57,0.61,6.04,1.8,7.41,3.57c1.63,2.11,2.11,4.64,1.43,7.6
		c-0.2,0.96-0.64,1.71-1.31,2.23c-1.1,0.85-2.01,0.81-2.72-0.12c-0.26-0.34-0.43-0.82-0.5-1.43l-0.22-0.03
		c-0.06-2.52-0.29-4.03-0.68-4.54c-1.57-2.02-4.13-3.07-7.7-3.15c-12.36-0.29-22.97,1.86-31.84,6.43
		C773.43,279.35,771.79,279.06,770.55,277.46z"/>
</g>
<g>
	<path class="st2" d="M736.04,752.86c0.66-0.7,1.64-0.65,2.95,0.13l14.67,9.39c1.16,0.79,2.99,1.96,5.49,3.51
		c2.5,1.54,5.29,3.17,8.36,4.89c0.64-1.3,1.26-3.1,1.87-5.38c0.61-2.28,1.48-5.82,2.61-10.61c1.08-4.11,1.9-7.29,2.47-9.53
		c0.57-2.25,1-4.18,1.29-5.81c0.29-1.63,0.66-3.62,1.11-5.98c-0.8-1.49-1.8-3.23-2.99-5.23c-1.2-2-2.31-3.93-3.35-5.78
		c-0.88-1.71-0.96-2.95-0.23-3.73c1.1-1.17,2.5-0.95,4.21,0.66c0.23,0.22,0.45,0.46,0.64,0.72c0.2,0.26,0.38,0.54,0.54,0.83
		l3.6,6.68c0.99,0.19,1.67,0.47,2.06,0.84c0.39,0.37,0.59,0.77,0.6,1.23l0.12,0.11c1.01,0.95,1.32,2.48,0.94,4.61
		c0.57,1.42,1.1,2.72,1.59,3.91c0.07-0.08,0.49,0.53,1.25,1.83c0.76,1.3,2.22,3.91,4.38,7.84l6.98,13.14
		c1.2,2.3,2.84,5.23,4.92,8.79c2.07,3.56,4.51,7.89,7.31,13.02l0.13,0.56l4.5,9.93c0.63,0.88,1.39,2.14,2.27,3.78
		c0.88,1.63,1.92,3.52,3.12,5.67c0.32,0.44,0.61,0.9,0.89,1.39c0.28,0.48,0.54,0.91,0.78,1.28c1.04,1.7,1.45,3.05,1.26,4.04
		c-0.14,0.46-0.31,0.8-0.53,1.04c-0.73,0.78-1.86,0.92-3.38,0.45c-1.52-0.48-2.6-1.09-3.22-1.82c-2.23-1.21-4.82-2.77-7.79-4.68
		c-2.97-1.91-6.3-4.09-10-6.54l-0.46-0.21c-1.38-0.56-2.91-1.42-4.61-2.57c-1.7-1.15-3.63-2.53-5.79-4.12l-15.54-11.74l-0.83,2.29
		c-0.07,0.23-0.25,0.5-0.54,0.81c-0.88,0.93-2.21,0.56-4-1.12c-0.78-0.73-1.21-1.44-1.31-2.11c-0.1-0.68-0.15-1.17-0.16-1.47
		l0.93-2.86c-0.38-0.22-1.06-0.59-2.02-1.13c-0.96-0.54-2.25-1.27-3.86-2.2l-7.03-3.97c-1.84-1-3.98-2.27-6.4-3.82
		c-2.42-1.55-5.1-3.33-8.03-5.35c-1.15-0.79-1.88-1.77-2.19-2.93C735.31,754.38,735.45,753.49,736.04,752.86z M781.21,742.17
		c0,0.15-0.26,1.25-0.8,3.31c-0.54,2.05-1.2,4.58-1.97,7.59c-0.77,3-1.57,6.03-2.38,9.07c-0.81,3.04-1.52,5.71-2.13,7.99
		s-0.98,3.65-1.12,4.11c0.39,0.37,0.87,0.78,1.45,1.26c0.58,0.47,1.3,1.03,2.15,1.69c1.93,1.52,3.94,3.01,6.03,4.45
		c2.08,1.44,4.16,2.85,6.24,4.22l9.72,6.71c2.01,1.45,5.62,3.75,10.86,6.91l3.81,2.26c-0.33-0.75-0.79-1.73-1.39-2.96
		c-0.6-1.23-1.35-2.69-2.23-4.4l-5.08-10.48c-1.2-2.15-2.79-4.97-4.79-8.45c-1.99-3.49-4.39-7.79-7.2-12.91
		c-3.36-6.09-5.82-10.52-7.38-13.3c-1.56-2.78-2.56-4.6-3-5.45C781.55,742.93,781.29,742.39,781.21,742.17z"/>
	<path class="st2" d="M714.37,689.09c5.12-4.51,10.26-3.84,15.4,2c8.53,9.69,9.02,29.22,1.48,58.59c-0.26,0.51-0.42,1.3-0.49,2.35
		c2.01,2.92,4.42,6.63,7.23,11.12c2.81,4.49,6.07,9.72,9.77,15.7l-0.12,0.11c0.55,0.79,1.21,1.81,1.96,3.07
		c0.75,1.26,1.64,2.79,2.65,4.59c0.94,3.01,0.77,5.07-0.51,6.2c-0.8,0.7-1.76,0.91-2.87,0.61c-1.12-0.3-1.83-0.87-2.16-1.72
		l-0.09-0.35c-0.21-0.24-0.39-0.37-0.54-0.37c-1.82-7.07-7.99-18.2-18.51-33.38l-4.7,7.98c-1.12,0.99-2.21,0.88-3.27-0.32
		c-0.78-0.88-0.8-1.71-0.07-2.5l5.54-8.71c-2-2.93-3.73-5.53-5.17-7.81c-1.44-2.28-2.6-4.25-3.48-5.89
		c-5.05-9.62-8.02-18.8-8.9-27.55C706.4,702,708.68,694.1,714.37,689.09z M717.21,692.56c-4.25,3.74-5.59,10.6-4.03,20.6
		c0.71,4.35,1.78,8.52,3.23,12.51c1.45,3.99,3.23,7.75,5.35,11.28c0.13,0.31,0.3,0.59,0.51,0.83c0.21,0.24,0.42,0.48,0.63,0.72
		c0.85,0.96,1.81,1.78,2.9,2.45c1.09,0.67,1.96,0.73,2.6,0.16c0.32-0.28,0.57-0.72,0.76-1.31l0.22,0.01
		c5.62-21.71,4.55-36.97-3.2-45.78C723.08,690.52,720.09,690.02,717.21,692.56z M761.55,806.14c1.2-1.06,2.28-0.8,3.24,0.77
		l2.92,5.74c0.54,1.09,0.36,2.03-0.52,2.8c-1.76,1.55-3.15,1.42-4.17-0.38c-0.92-1.04-1.77-3.06-2.56-6.06
		C760.39,807.81,760.75,806.85,761.55,806.14z"/>
	<path class="st2" d="M711.57,774.66c2.74-2.04,5.85-2.69,9.32-1.95c3.18,0.69,5.69,2.28,7.53,4.77c3.44,4.62,5,11.1,4.69,19.44
		c-0.06,3.5-0.43,6.83-1.13,10.01c-0.69,3.17-1.6,6.24-2.72,9.21c-0.24,0.58-0.74,1.15-1.51,1.72c-2.48,1.85-4.17,2.17-5.06,0.97
		c-0.26-0.34-0.29-0.92-0.09-1.73l-0.1-0.13c-2.62-0.84-5.3-1.77-8.05-2.78c-2.75-1.02-5.11-2.85-7.08-5.5
		c-1.66-2.23-2.76-4.92-3.33-8.09c-0.56-3.17-0.63-6.48-0.2-9.92c0.43-3.44,1.31-6.59,2.64-9.45
		C707.82,778.37,709.52,776.18,711.57,774.66z M714.4,778.73c-2.08,1.68-3.69,4.24-4.85,7.69c-1.15,3.45-1.72,7.03-1.69,10.73
		c0.03,3.7,0.79,6.65,2.3,8.86c2.31,3.46,6.82,5.96,13.54,7.48c1.71-5.39,2.63-10.93,2.79-16.63c0.09-6.85-1.17-12.03-3.78-15.53
		C719.91,777.56,717.14,776.69,714.4,778.73z"/>
	<path class="st2" d="M661.57,809.76c1.99-1.26,4.25-0.96,6.79,0.91c0.45,0.35,1.13,1.01,2.05,1.96c0.91,0.95,2.11,2.17,3.58,3.67
		c1.7,2.1,2.83,2.68,3.39,1.74c0.16-3.16,0.83-6.93,2.01-11.29c1.5-5.53,3.13-8.8,4.89-9.81c1.94-1.11,4.46-0.59,7.54,1.58
		c2.53,1.62,4.4,3.5,5.62,5.63c4.08,7.12,6.74,13.9,7.96,20.33c0.17,1.38-0.2,2.33-1.13,2.86c-0.83,0.48-1.86,0.51-3.08,0.1
		c-1.22-0.41-2.12-1.12-2.7-2.14c-0.32-0.55-0.58-1.88-0.8-3.97c-0.2-4.43-1.53-8.78-3.97-13.03c-2.65-4.63-4.86-6.44-6.61-5.43
		c-0.83,0.48-2.1,2.98-3.8,7.53c-2.93,8.19-3.39,16.94-1.38,26.24c0.17,1.38-0.25,2.36-1.27,2.94c-1.67,0.95-2.9,0.74-3.69-0.65
		c-0.53-0.93-1-2.01-1.4-3.25c-0.4-1.24-0.77-2.69-1.11-4.34c-0.43-1.6-0.86-3.01-1.32-4.23c-0.45-1.22-0.94-2.29-1.47-3.21
		c-0.37-0.65-0.86-1.39-1.45-2.21c-0.6-0.83-1.28-1.7-2.05-2.61c-2.05-2.51-3.49-3.84-4.31-3.98c-1.36,2.13-2.49,3.86-3.4,5.17
		c-0.91,1.32-1.94,2.99-3.12,5.01c-0.92,0.53-1.6,0.42-2.02-0.32c-0.43-0.74-0.27-2.24,0.46-4.51c0.73-2.26,1.66-4.45,2.78-6.57
		C659.7,811.75,660.7,810.38,661.57,809.76z"/>
	<path class="st2" d="M637.64,810.36c2.45-1.05,4.31-0.11,5.57,2.83c6.28,14.6,11.94,30.57,16.97,47.91
		c1.07-0.23,2.14-0.49,3.23-0.78c1.09-0.29,2.17-0.56,3.23-0.78c2.91-0.79,4.62-0.6,5.13,0.58c0.51,1.18,0.23,2.16-0.82,2.96
		l0.15-0.06c0.88-0.38,0.77-0.24-0.35,0.41c-1.11,0.65-2.56,1.48-4.33,2.47c-1.78,1-3.2,1.73-4.28,2.19
		c0.89,3.68,1.46,8.25,1.72,13.72c0.25,3.26,0.5,6.08,0.77,8.46c0.27,2.38,0.48,4.29,0.64,5.73c0.36,2.17-0.5,3.7-2.56,4.58
		c-0.88,0.38-1.41,0.09-1.6-0.88c-0.39-3.08-0.95-7.06-1.65-11.92c-0.7-4.87-1.65-10.58-2.85-17.15c-0.88,0.38-1.98,0.86-3.31,1.42
		c-1.32,0.57-2.89,1.18-4.69,1.85c-1.81,0.66-3.38,1.25-4.72,1.77c-1.34,0.52-2.41,0.95-3.19,1.29c-0.88,0.38-1.47,0.22-1.76-0.46
		c-0.25-0.59-0.16-1.38,0.28-2.38c0.44-1,1.1-1.69,1.98-2.07c1.18-0.51,2.87-1.44,5.07-2.79c2.2-1.36,4.97-3.16,8.3-5.4
		c-3.72-12.68-10.03-29.36-18.93-50.04C635.02,812.36,635.68,811.2,637.64,810.36z"/>
	<path class="st2" d="M603.29,829.92c4.48-1.41,8.55-1.19,12.21,0.67c3.67,1.86,6.24,5.13,7.71,9.81c0.32,1.02,0.57,2.06,0.74,3.12
		c0.17,1.06,0.31,2.14,0.43,3.22c0.26,4.73-1.36,10.38-4.87,16.98c-3.99,7.19-8.07,11.45-12.24,12.76c-3.46,1.09-5.7-0.33-6.71-4.25
		c-1.47-5.02-0.27-10.77,3.61-17.25c1.73-2.67,3.58-5.22,5.56-7.63c1.98-2.42,4.34-4.06,7.09-4.92l0.15-0.05
		c-2.39-6.52-6.85-8.74-13.36-6.69c-2.13,0.67-4.36,1.94-6.69,3.79c-0.17,0.16-0.46,0.31-0.87,0.44c-1.32,0.42-2.19-0.04-2.61-1.36
		c-0.29-0.92-0.06-1.77,0.7-2.57C596.38,833.17,599.43,831.14,603.29,829.92z M615.11,850.85c-2.93,1.71-5.21,3.88-6.83,6.52
		c-2.91,4.61-3.88,8.44-2.91,11.49l0.1,0.3c0.22,0.71,0.66,1.19,1.29,1.44c0.64,0.24,1.03,0.23,1.16-0.03
		c3.15-1,5.79-4.34,7.9-10.05c0.29-0.87,0.6-2.01,0.94-3.4c0.34-1.4,0.66-3.04,0.96-4.92c0.04-0.24,0.02-0.46-0.04-0.66
		C617.39,850.64,616.54,850.4,615.11,850.85z"/>
	<path class="st2" d="M581.53,840.72c1.04-0.21,1.98,0.87,2.79,3.26c0.82,2.39,1.5,4.89,2.03,7.5c0.34,1.67,0.64,3.22,0.87,4.64
		c0.24,1.42,0.43,2.5,0.58,3.23c0.21,1.04,0.44,2.39,0.66,4.03c0.23,1.64,0.46,3.53,0.67,5.66c0.57,4.35,1.08,7.62,1.53,9.81
		c0.21,1.04,0.48,2.05,0.79,3.02c0.31,0.97,0.55,1.87,0.72,2.71l0.13,0.63c0.26,1.25-0.29,2.02-1.65,2.3
		c-1.04,0.21-1.75-0.29-2.11-1.53c-0.44-1.11-1.08-3.43-1.92-6.96c-0.83-3.53-1.91-8.21-3.21-14.04c-0.32-1.57-0.8-2.29-1.42-2.16
		c-0.73,0.15-1.58,1.58-2.55,4.28c-2,5.64-4.42,10.55-7.26,14.73c-2.12,2.94-4.27,4.64-6.47,5.09c-2.61,0.54-5.09-0.15-7.45-2.06
		c-0.78-0.6-1.25-1.32-1.42-2.16c-0.28-1.36,0.16-2.16,1.3-2.39c0.42-0.09,0.92-0.03,1.51,0.18l0.12-0.19
		c2.29,1.05,3.74,1.52,4.37,1.39c2.51-0.52,4.58-2.36,6.21-5.53c5.69-10.97,8.44-21.45,8.24-31.42
		C578.57,842.47,579.55,841.13,581.53,840.72z"/>
	<path class="st2" d="M484.19,847.07c0.54,0,1.02,0.22,1.44,0.64c2.88,2.99,4.37,7.36,4.47,13.12c0,0.43-0.05,0.93-0.16,1.52
		c-0.11,0.58-0.16,1.25-0.16,2l-0.16,3.36l0,0.48c0,1.92,0.7,2.61,2.08,2.08c2.14-1.5,4.99-3.65,8.56-6.48
		c3.58-2.83,7.87-6.26,12.88-10.32c2.14-2.03,4.86-3.04,8.16-3.04c1.92,0,3.55,1.04,4.88,3.12c1.33,2.08,1.84,4.08,1.52,6
		c-0.32,2.77-1.44,5.78-3.36,9.04c-1.92,3.25-4.29,6.5-7.12,9.76c-2.83,3.25-5.87,6.13-9.12,8.64c-3.25,2.5-6.38,4.29-9.36,5.36
		c-1.17,0.42-2.29,0.74-3.36,0.96c-1.07,0.21-2.13,0.32-3.2,0.32c-4.58,0-6.88-1.6-6.88-4.8c0-1.07,0.43-1.6,1.28-1.6
		c0.32,0,0.64,0.03,0.96,0.08c0.32,0.05,0.64,0.18,0.96,0.4c1.92,1.6,3.68,2.4,5.28,2.4c1.6,0,3.95-0.96,7.04-2.88
		c2.46-1.49,4.86-3.36,7.2-5.6c2.35-2.24,4.59-4.75,6.72-7.52c2.03-2.67,3.63-5.04,4.8-7.12c1.18-2.08,1.87-3.92,2.08-5.52
		c0.11-0.43,0.16-0.96,0.16-1.6c0-1.71-0.69-2.56-2.08-2.56c-1.7,0-4.91,1.54-9.6,4.64c-11.2,7.46-18.99,14.07-23.37,19.83
		c-1.07,1.38-2.03,3.25-2.88,5.6c-0.53,1.49-1.65,2.24-3.36,2.24c-1.92,0-2.88-1.07-2.88-3.2c0-1.71,0.8-3.84,2.4-6.4
		c2.56-7.79,3.85-13.17,3.85-16.16c-0.21-4.59-1.33-8.27-3.36-11.04c-0.32-0.32-0.48-0.75-0.48-1.28c0-0.96,0.48-1.95,1.44-2.96
		C482.43,847.58,483.34,847.07,484.19,847.07z"/>
	<path class="st2" d="M437.05,843.58c2.34,0.23,3.94,1.85,4.8,4.89c0.14,0.56,0.27,1.49,0.41,2.8s0.33,3.01,0.57,5.09
		c0.05,2.7,0.58,3.85,1.61,3.46c2.07-2.4,4.91-4.96,8.53-7.67c4.59-3.44,7.88-5.02,9.89-4.73c2.22,0.32,3.88,2.28,4.98,5.88
		c1,2.83,1.32,5.47,0.98,7.9c-1.16,8.13-3.23,15.11-6.21,20.93c-0.71,1.19-1.59,1.71-2.65,1.56c-0.95-0.13-1.78-0.74-2.49-1.81
		c-0.71-1.07-0.98-2.19-0.82-3.35c0.09-0.63,0.69-1.84,1.81-3.62c2.56-3.62,4.19-7.86,4.88-12.72c0.75-5.28,0.12-8.06-1.88-8.35
		c-0.95-0.14-3.49,1.06-7.62,3.6c-7.34,4.66-13.08,11.28-17.21,19.85c-0.71,1.19-1.64,1.71-2.8,1.54c-1.9-0.27-2.74-1.2-2.51-2.78
		c0.15-1.06,0.45-2.2,0.89-3.43c0.45-1.23,1.04-2.6,1.8-4.11c0.65-1.52,1.17-2.9,1.56-4.14c0.39-1.24,0.66-2.39,0.81-3.44
		c0.11-0.74,0.18-1.62,0.21-2.64c0.04-1.02,0.03-2.12-0.01-3.31c-0.08-3.24-0.39-5.17-0.95-5.79c-2.38,0.84-4.34,1.51-5.86,1.99
		c-1.52,0.48-3.37,1.16-5.54,2.04c-1.05-0.15-1.52-0.65-1.4-1.49c0.12-0.85,1.17-1.93,3.13-3.27c1.97-1.34,4.05-2.49,6.23-3.48
		C434.35,844,435.98,843.53,437.05,843.58z"/>
	<path class="st2" d="M430.03,779.13c1.71,0.6,2.37,1.46,1.98,2.56c-0.18,0.5-0.41,1.33-0.7,2.47c-0.29,1.14-0.62,2.55-0.98,4.23
		c-0.4,1.45-0.75,2.76-1.05,3.95c-0.31,1.19-0.64,2.12-0.98,2.79c-2.81,6.7-6.8,14.48-11.96,23.35
		c-5.16,8.87-11.6,18.79-19.31,29.75c0.67,0.35,0.86,0.92,0.58,1.73c0.33,0.68,0.31,1.52-0.04,2.53c-0.5,1.41-1.39,2.59-2.69,3.55
		c-1.3,0.96-2.61,1.88-3.95,2.77l-2.67,2.28l-3.57,4.85c-1.41,1.76-2.58,3.47-3.5,5.13c-0.92,1.65-1.68,3.17-2.28,4.54
		c-0.56,1.27-1.49,1.68-2.8,1.22c-1.51-0.53-2.05-1.4-1.62-2.61c0.53-1.51,1.21-2.96,2.05-4.37s1.79-2.82,2.86-4.25
		c-8.55,3.09-16.1,3.49-22.64,1.18c-3.02-1.06-4.89-3.14-5.61-6.22c-0.7-2.51-0.62-4.97,0.23-7.38c2.38-6.74,8.57-13.72,18.58-20.94
		c10.66-7.78,19.26-10.52,25.8-8.21c2.92,1.03,3.77,3.25,2.57,6.67c-0.67,1.91-1.66,2.64-2.97,2.18c-0.6-0.21-1.32-0.91-2.14-2.11
		c-0.47-0.28-0.94-0.53-1.43-0.76c-0.48-0.23-0.94-0.53-1.38-0.91c-4.83-1.7-11.38,0.68-19.66,7.15
		c-7.87,6.27-12.86,12.43-14.99,18.47c-0.5,1.41-0.4,3,0.27,4.76c0.68,1.77,1.67,2.88,2.98,3.34c8.62,3.15,16.87,2.04,24.75-3.32
		l4.14-5.49c13.82-18.99,24.2-38.35,31.15-58.07l3.02-8.1l2.86-7.64C425.5,778.5,427.21,778.14,430.03,779.13z"/>
	<path class="st2" d="M325.92,800.78c0.47,0.25,0.8,0.66,0.98,1.23c1.18,3.98,0.48,8.55-2.08,13.71c-0.2,0.38-0.48,0.8-0.84,1.28
		c-0.36,0.47-0.72,1.04-1.06,1.7l-1.69,2.91l-0.22,0.43c-0.89,1.7-0.59,2.64,0.89,2.8c2.58-0.34,6.11-0.94,10.58-1.8
		c4.48-0.86,9.87-1.93,16.19-3.21c2.83-0.81,5.71-0.46,8.64,1.07c1.7,0.89,2.67,2.56,2.89,5.02c0.22,2.46-0.25,4.47-1.42,6.02
		c-1.56,2.31-3.95,4.47-7.15,6.47c-3.2,2-6.81,3.79-10.82,5.37c-4.01,1.58-8.03,2.73-12.08,3.45c-4.04,0.72-7.63,0.87-10.78,0.43
		c-1.24-0.16-2.38-0.4-3.42-0.7c-1.04-0.3-2.04-0.7-2.99-1.19c-4.07-2.12-5.37-4.59-3.89-7.43c0.49-0.95,1.12-1.22,1.87-0.83
		c0.28,0.15,0.56,0.32,0.81,0.51c0.26,0.19,0.48,0.46,0.67,0.8c0.96,2.31,2.16,3.83,3.58,4.57c1.42,0.74,3.94,0.97,7.57,0.7
		c2.87-0.19,5.86-0.74,8.97-1.64c3.12-0.9,6.26-2.09,9.43-3.57c3.03-1.43,5.54-2.79,7.54-4.1c2-1.3,3.46-2.62,4.39-3.94
		c0.29-0.33,0.58-0.78,0.88-1.34c0.79-1.51,0.57-2.59-0.66-3.23c-1.51-0.79-5.06-0.89-10.66-0.32c-13.38,1.45-23.34,3.73-29.88,6.82
		c-1.58,0.74-3.3,1.95-5.14,3.64c-1.16,1.08-2.5,1.23-4.02,0.44c-1.7-0.89-2.06-2.28-1.08-4.17c0.79-1.51,2.48-3.04,5.08-4.57
		c5.87-5.73,9.49-9.91,10.87-12.56c1.93-4.17,2.63-7.95,2.11-11.34c-0.14-0.43-0.08-0.88,0.17-1.36c0.44-0.85,1.33-1.51,2.64-1.96
		C324.12,800.42,325.16,800.38,325.92,800.78z"/>
	<path class="st2" d="M310.82,795.49c1.29,0.95,0.91,2.45-1.13,4.53c-2.46,2.82-5.64,6.21-9.54,10.17
		c-3.89,3.96-8.45,8.51-13.69,13.67c-1.38,0.98-2.54,1.12-3.48,0.42c-1.21-0.88-1.4-1.88-0.58-3c0.06-0.09,0.17-0.24,0.33-0.45
		c0.16-0.22,0.38-0.42,0.65-0.61c0.74-0.65,1.51-1.38,2.3-2.19c0.79-0.81,1.57-1.73,2.32-2.76c0.88-1.21,1.77-2.54,2.64-4.01
		c0.88-1.47,1.71-3.11,2.51-4.91c-0.52-0.38-3.98-0.08-10.39,0.91c-6.28,0.82-10.84,0.71-13.67-0.3l-0.09,0.13
		c-0.32-0.1-0.61-0.25-0.87-0.44c-0.26-0.19-0.47-0.35-0.65-0.47c-1.63-1.2-2.14-2.76-1.52-4.69l6.99-13.33
		c3.07-5.82,3.58-9.48,1.51-10.99c-0.86-0.63-1.94-0.96-3.24-0.99c-1.83-0.02-3.67,0.05-5.52,0.22c-1.84,0.17-3.6,0.5-5.28,0.98
		c-0.64-0.21-1.05-0.37-1.22-0.5c-0.6-0.44-0.62-1.05-0.05-1.82c0.38-0.52,1.23-0.95,2.55-1.31c2.13-0.56,4.31-1.1,6.56-1.64
		c2.25-0.54,4.25-0.75,6.03-0.64c2.33,0.25,4.05,0.79,5.17,1.61c2.32,1.7,2.7,4.89,1.13,9.56l-5.47,12.06
		c-1.81,4.09-1.99,6.41-0.53,6.95c0.09,0.06,0.18,0.16,0.28,0.3c0.1,0.14,0.23,0.27,0.4,0.39c0.34,0.25,0.82,0.47,1.42,0.64
		c0.6,0.17,1.27,0.21,2.02,0.09l5.46-0.96c4.69-0.8,8.88-1.83,12.58-3.08c3.7-1.26,6.93-2.59,9.68-4.01
		C307.97,794.33,309.44,794.49,310.82,795.49z"/>
	<path class="st2" d="M229.89,797.69c1.19,1.07,1.1,2.28-0.26,3.64l-5.26,3.45c-1.02,0.66-1.97,0.59-2.84-0.19
		c-1.82-1.64-1.89-3.07-0.22-4.29c1.08-1.04,2.46-2.02,4.15-2.94C227.14,796.44,228.62,796.55,229.89,797.69z M267.78,763.99
		c0.71,0.64,0.91,1.39,0.57,2.24c-0.47,1.16-1.23,2.41-2.3,3.75c-1.06,1.34-2.35,2.76-3.85,4.28c-1.8,1.68-4.32,3.57-7.58,5.66
		c-3.25,2.1-7.19,4.36-11.82,6.79c-1.03,0.51-1.94,0.4-2.74-0.31c-1.51-1.36-1.41-2.49,0.27-3.41c1.25-0.75,2.45-1.53,3.62-2.34
		c1.17-0.82,2.33-1.63,3.5-2.45c2.04-1.47,3.82-2.8,5.34-4.02c1.52-1.21,2.79-2.37,3.78-3.48c3.5-3.88,5.28-5.94,5.34-6.17
		c0.48-1.01,1.38-1.53,2.7-1.56C265.93,762.93,266.99,763.28,267.78,763.99z"/>
	<path class="st2" d="M248.82,737.45c3.24,3.4,4.83,7.15,4.76,11.26c-0.06,4.11-1.87,7.86-5.42,11.24c-0.77,0.74-1.6,1.41-2.48,2.03
		c-0.88,0.62-1.78,1.22-2.7,1.8c-4.13,2.31-9.92,3.34-17.39,3.09c-8.21-0.43-13.83-2.22-16.85-5.39c-2.5-2.63-2.21-5.26,0.87-7.9
		c3.86-3.53,9.55-4.98,17.08-4.34c3.16,0.38,6.26,0.92,9.3,1.64c3.04,0.71,5.55,2.11,7.54,4.2l0.11,0.12
		c4.8-5.02,4.84-9.99,0.13-14.94c-1.54-1.62-3.66-3.07-6.35-4.34c-0.22-0.08-0.48-0.28-0.78-0.59c-0.96-1-0.93-1.98,0.07-2.94
		c0.7-0.66,1.57-0.83,2.62-0.5C242.86,732.66,246.03,734.51,248.82,737.45z M235.22,757.26c-2.82-1.88-5.77-2.97-8.86-3.27
		c-5.42-0.58-9.29,0.23-11.6,2.44l-0.23,0.22c-0.54,0.51-0.78,1.11-0.72,1.79c0.06,0.68,0.24,1.02,0.54,1.03
		c2.28,2.39,6.45,3.29,12.5,2.68c0.91-0.13,2.07-0.35,3.47-0.65c1.4-0.31,3.02-0.74,4.84-1.3c0.23-0.07,0.42-0.18,0.57-0.33
		C236.41,759.21,236.25,758.34,235.22,757.26z"/>
	<path class="st2" d="M229.45,722.54c0.65,0.84,0.09,2.16-1.7,3.95c-1.79,1.79-3.73,3.5-5.84,5.13c-1.35,1.04-2.61,1.99-3.78,2.83
		c-1.17,0.84-2.05,1.49-2.64,1.94c-0.84,0.65-1.95,1.44-3.33,2.37c-1.37,0.93-2.97,1.96-4.79,3.1c-3.65,2.42-6.37,4.32-8.14,5.69
		c-0.84,0.65-1.63,1.33-2.37,2.04c-0.74,0.71-1.44,1.32-2.12,1.84l-0.51,0.39c-1.01,0.78-1.94,0.63-2.79-0.47
		c-0.65-0.84-0.5-1.7,0.44-2.57c0.8-0.89,2.6-2.48,5.4-4.79c2.8-2.3,6.54-5.33,11.19-9.07c1.27-0.98,1.7-1.72,1.31-2.23
		c-0.46-0.59-2.11-0.72-4.97-0.41c-5.94,0.69-11.42,0.67-16.42-0.04c-3.57-0.61-6.04-1.8-7.41-3.57c-1.63-2.11-2.11-4.64-1.43-7.59
		c0.2-0.96,0.64-1.71,1.31-2.23c1.1-0.85,2-0.81,2.72,0.12c0.26,0.34,0.43,0.82,0.5,1.43l0.22,0.03c0.06,2.52,0.29,4.03,0.68,4.54
		c1.57,2.02,4.13,3.07,7.7,3.15c12.36,0.29,22.97-1.86,31.84-6.43C226.57,720.65,228.21,720.93,229.45,722.54z"/>
</g>
<g>
	<circle class="st1" cx="875" cy="499.75" r="20"/>
</g>
<g>
	<circle class="st1" cx="125" cy="499.75" r="20"/>
</g>
</svg>
