<?xml version="1.0" encoding="iso-8859-1"?>
<!-- Generator: Adobe Illustrator 19.0.0, SVG Export Plug-In . SVG Version: 6.00 Build 0)  -->
<svg version="1.1" id="Capa_1" xmlns="http://www.w3.org/2000/svg" xmlns:xlink="http://www.w3.org/1999/xlink" x="0px" y="0px"
	 viewBox="0 0 512 512" style="enable-background:new 0 0 512 512; fill: #D1AC8A" xml:space="preserve">
<g>
	<g>
		<path d="M505.864,248.626l-204.627-37.863L263.374,6.135C262.716,2.58,259.616,0,256,0c-3.616,0-6.716,2.58-7.374,6.135
			l-37.863,204.628L6.136,248.626C2.58,249.284,0,252.385,0,256s2.58,6.716,6.135,7.374l204.627,37.863l37.863,204.628
			C249.284,509.42,252.384,512,256,512c3.616,0,6.716-2.58,7.374-6.135l37.863-204.628l204.627-37.863
			C509.42,262.716,512,259.615,512,256S509.42,249.284,505.864,248.626z M256,48.717l30.709,165.966l-30.728,30.711l-30.691-30.708
			L256,48.717z M48.718,256l165.965-30.709L245.376,256l-30.692,30.709L48.718,256z M256,463.283l-30.709-165.967L256,266.624
			l30.709,30.692L256,463.283z M297.314,286.709l-30.708-30.691l30.711-30.728L463.283,256L297.314,286.709z"/>
	</g>
</g>
<g>
	<g>
		<path d="M413.854,98.126c-2.439-2.438-6.225-2.899-9.18-1.117l-90.281,54.514c-3.546,2.141-4.684,6.751-2.543,10.297
			c2.139,3.545,6.749,4.682,10.295,2.543l64.292-38.821l-39.424,65.292c-2.141,3.546-1.003,8.156,2.543,10.297
			c1.213,0.732,2.55,1.08,3.87,1.08c2.54,0,5.018-1.291,6.426-3.624l55.118-91.282C416.753,104.352,416.292,100.564,413.854,98.126z
			"/>
	</g>
</g>
<g>
	<g>
		<path d="M200.152,350.136c-2.14-3.545-6.751-4.682-10.297-2.542l-64.292,38.821l39.424-65.293
			c2.141-3.546,1.003-8.156-2.543-10.297c-3.546-2.139-8.156-1.002-10.296,2.543L97.032,404.65
			c-1.783,2.953-1.322,6.741,1.116,9.179c1.446,1.446,3.367,2.197,5.306,2.197c1.331,0,2.672-0.354,3.874-1.079l90.281-54.514
			C201.155,358.292,202.293,353.682,200.152,350.136z"/>
	</g>
</g>
<g>
	<g>
		<path d="M414.969,404.651l-54.514-90.281c-2.14-3.546-6.75-4.684-10.296-2.544c-3.546,2.141-4.684,6.751-2.543,10.296
			l38.82,64.293l-65.292-39.425c-3.547-2.14-8.156-1.002-10.296,2.543c-2.141,3.546-1.003,8.156,2.543,10.297l91.282,55.118
			c1.202,0.726,2.543,1.079,3.874,1.079c1.939,0,3.86-0.75,5.306-2.197C416.291,411.391,416.752,407.603,414.969,404.651z"/>
	</g>
</g>
<g>
	<g>
		<path d="M198.609,152.127L107.328,97.01c-2.953-1.783-6.741-1.321-9.18,1.117c-2.438,2.439-2.899,6.227-1.116,9.179l54.513,90.281
			c1.408,2.333,3.886,3.624,6.426,3.624c1.32,0,2.657-0.349,3.87-1.08c3.546-2.141,4.684-6.751,2.543-10.297l-38.82-64.292
			l65.292,39.425c3.546,2.14,8.156,1.002,10.296-2.544C203.293,158.878,202.155,154.268,198.609,152.127z"/>
	</g>
</g>
<g>
</g>
<g>
</g>
<g>
</g>
<g>
</g>
<g>
</g>
<g>
</g>
<g>
</g>
<g>
</g>
<g>
</g>
<g>
</g>
<g>
</g>
<g>
</g>
<g>
</g>
<g>
</g>
<g>
</g>
</svg>
