<?xml version="1.0" encoding="utf-8"?>
<!-- Generator: Adobe Illustrator 27.1.0, SVG Export Plug-In . SVG Version: 6.00 Build 0)  -->
<svg version="1.1" id="OBJECT" xmlns="http://www.w3.org/2000/svg" xmlns:xlink="http://www.w3.org/1999/xlink" x="0px" y="0px"
	 viewBox="0 0 512 512" style="enable-background:new 0 0 512 512;" xml:space="preserve">
<style type="text/css">
	.st0{fill:#FFFFFF;}
</style>
<path class="st0" d="M480,384H160c-8.84,0-16-7.16-16-16v-32h263.04c22.01,0,41.2-14.97,46.56-36.32L496,131.84
	c2.12-8.84-3.32-17.72-12.16-19.84s-17.72,3.32-19.84,12.16l-41.44,167.68c-1.81,7.31-8.47,12.38-16,12.16H144V64
	c0-26.51-21.49-48-48-48H32c-8.84,0-16,7.16-16,16s7.16,16,16,16h64c8.84,0,16,7.16,16,16v304c0,26.51,21.49,48,48,48v16
	c0,35.35,28.65,64,64,64s64-28.65,64-64v-16h48v16c0,35.35,28.65,64,64,64s64-28.65,64-64v-16h16c8.84,0,16-7.16,16-16
	S488.84,384,480,384z M256,432c0,17.67-14.33,32-32,32s-32-14.33-32-32v-16h64V432z M432,432c0,17.67-14.33,32-32,32
	s-32-14.33-32-32v-16h64V432z"/>
</svg>
