<?xml version="1.0" encoding="utf-8"?>
<!-- Generator: Adobe Illustrator 27.2.0, SVG Export Plug-In . SVG Version: 6.00 Build 0)  -->
<svg version="1.1" id="Calque_1" xmlns="http://www.w3.org/2000/svg" xmlns:xlink="http://www.w3.org/1999/xlink" x="0px" y="0px"
	 viewBox="0 0 1000 1000" style="enable-background:new 0 0 1000 1000;" xml:space="preserve">
<style type="text/css">
	.st0{fill:#FFFFFF;}
</style>
<g>
	<path d="M537.89,358.28c13.34,16.54,22.17,42.56,47.42,41.06c3.16-0.07,4.01,3.06,4.27,5.9c0.64,6.96-1.04,13.94-4.08,19.64
		c-6.84,12.84-10.01,27.44-19.21,39.11c-2.32,2.95-2,6.5,0.19,9.56c10.23,16.91,23.53,31.86,29.61,50.97
		c-14.78-14.61-23.92-33.17-35.59-51.45c-17.85,26.58-32.37,54.28-49.07,81.63c22.52,2.54,44.5,1.04,67.01,1.45
		c2.42,0.02,6.73-1.23,6.73,2.11c0,4.01-4.49,2.55-7.05,2.56c-21.43,0.12-42.86,0.18-64.29-0.09c-5.07-0.06-8.06,3.29-10.07,6.3
		c-16.52,25.46-28.27,54.15-33.44,84.16c-0.56,2.66-0.68,7.76-4.62,6.76c-1.45-0.48-1.55-1.81-1.27-3.02
		c1.18-5.1-0.44-10.34,0.21-15.11c8.78-55.06,5.4-114.1,39.92-161.45c17.5-19.41-17.12-29.59-20.23-46.28
		c12.28,7.66,20.28,19.09,30.53,29.11c5.56-6.03,8.62-13.32,13.58-19.21c2.18-2.59-1.52-5.26-3.21-7.4
		c-9.48-12.07-19.93-23.29-30.97-33.96c-2.97-2.87-5.24-5.8-3.33-10.37c8.6,11.01,21.02,19.15,29.4,30.82
		c3.41,2.34,12.53,15.75,15.91,9.65c5.45-9.77,11.72-18.98,18.57-27.83c2.15-2.77,0.53-5.58-0.79-8.21
		C549.06,381.99,539.64,372.04,537.89,358.28z"/>
	<path d="M406.69,374.52c17.61,13.24,25.53,34.74,45.91,43.66c17.09-32.14,32.58-64.48,48.43-96.7
		c-18.5,77.56-32.38,156.36-54.31,233.33c-2.95,11.45-2.95,11.46-13.59,14.84c2.6,1.79,5.34,0.12,8.44,1.14
		c-10.09,38.16-19.29,76.5-19.72,116.51c-14.79-39.01-15.13-80.61-11.76-121.99c-2.43,1.6-1.24,3.42-2.4,4.75
		c-1.55-2.68,0.12-5.58-1.21-9.27c-17.65,0-35.73,0-55.02,0c3.47-8.74,38.33-3.09,48.35-4.49c5.69,0.1,9.86-0.67,9.74-7.76
		c0.18,3.69,0.36,7.37,0.54,11.06c14.57-60.05-5.21-77.59-25.24-130.03c16.94,22.88,26.51,48.33,33.9,76.19
		c10.8-21.38,16.78-43.47,26.03-64.12c5.46-12.19,2.25-19.9-6.13-27.85c-10-9.48-17.96-20.85-28.05-30.28
		C408.66,381.7,406.96,379.15,406.69,374.52z"/>
	<path d="M703.84,350.2c10.97-3.24,23.4,27.97,26.47,36.2c87.9,150.41-51.88,335.58-213.11,344.72c-1.9,0.47-4.2,0.76-4.62-1.96
		C682.52,694.47,785.79,512.99,703.84,350.2z"/>
	<path d="M365.03,270.8c-142.45,94.88-118.85,261.54-52.13,395.49C207.23,557.39,217.33,335.91,365.03,270.8z"/>
	<path d="M338.07,680.39c39.78,44.05,104.3,72.52,163.82,73.25c1.91-0.03,4.18,0.2,4.1,2.97c-69.62,13.55-150.47-36.15-191.13-93.32
		c-1.39-2.53-3.1-5.18,0.02-7.75C323.57,662.94,331.3,671.22,338.07,680.39z"/>
	<path d="M338.07,680.39c-8.16-5.47-12.8-14.6-21.05-19.77c-2.04-0.79-2.03-3.11-2.14-5.07c51.58,46.89,114.69,93.68,189.85,89.19
		c4.8-0.92,4.93,5.26-0.09,4.8C441.53,752.5,384.11,721.22,338.07,680.39z"/>
	<path d="M369.86,356.91c-7.9,56.48-21.52,124.17-37.51,179.67C339.76,478.53,354.18,413.51,369.86,356.91z"/>
	<path d="M652.75,378.97c-2.17-6.72,7.44-11.05,5.82-2.81c-13.4,52.71-19.37,107.8-32.75,159.95c-1.12,1.41-3.8,0.84-3.55-1.2
		c9.38-52.12,20.49-103.99,30.97-155.89C653.07,379.01,652.91,378.99,652.75,378.97z"/>
	<path d="M440.9,241.13c-17.54,3.39-34.26,9.98-51.62,14.08C404.5,242.9,422.72,242.07,440.9,241.13z"/>
	<path d="M445.34,349.13c8.8-4.77,17.56-0.06,26.77-3c2.21-0.14,6.32-1.03,7.2,1.69C477.42,355.07,451.8,351.32,445.34,349.13z"/>
	<path class="st0" d="M738.33,428.23c20.14,45.27,6.2,123.09-21.97,162.29C741.74,538.13,748.73,484.33,738.33,428.23z"/>
	<path class="st0" d="M259.36,440c-6.95,60.86-4.78,119.24,23.76,175.19c-27.85-37.65-36.36-92.87-30.69-139.18
		c2.15-2.89,1.02-6.55,0.45-9.89C252.21,459.47,252.75,442.62,259.36,440z"/>
</g>
</svg>
